<mxfile host="app.diagrams.net" agent="Mozilla/5.0 (Windows NT 10.0; Win64; x64) AppleWebKit/537.36 (KHTML, like Gecko) Chrome/136.0.0.0 Safari/537.36" version="27.0.9">
  <diagram id="R2lEEEUBdFMjLlhIrx00" name="Page-1">
    <mxGraphModel dx="1701" dy="898" grid="1" gridSize="10" guides="1" tooltips="1" connect="1" arrows="1" fold="1" page="1" pageScale="1" pageWidth="850" pageHeight="1100" math="0" shadow="0" extFonts="Permanent Marker^https://fonts.googleapis.com/css?family=Permanent+Marker">
      <root>
        <mxCell id="0" />
        <mxCell id="1" parent="0" />
        <mxCell id="UZMCwY883td22Gfu0i2W-1" value="&lt;u&gt;BookingID&lt;/u&gt;" style="rounded=0;whiteSpace=wrap;html=1;" parent="1" vertex="1">
          <mxGeometry x="50" y="150" width="65" height="30" as="geometry" />
        </mxCell>
        <mxCell id="UZMCwY883td22Gfu0i2W-2" value="EndDate" style="rounded=0;whiteSpace=wrap;html=1;" parent="1" vertex="1">
          <mxGeometry x="115" y="150" width="55" height="30" as="geometry" />
        </mxCell>
        <mxCell id="UZMCwY883td22Gfu0i2W-3" value="StartDate" style="rounded=0;whiteSpace=wrap;html=1;" parent="1" vertex="1">
          <mxGeometry x="170" y="150" width="60" height="30" as="geometry" />
        </mxCell>
        <mxCell id="UZMCwY883td22Gfu0i2W-4" value="Status" style="rounded=0;whiteSpace=wrap;html=1;" parent="1" vertex="1">
          <mxGeometry x="230" y="150" width="50" height="30" as="geometry" />
        </mxCell>
        <mxCell id="UZMCwY883td22Gfu0i2W-5" value="TotalCost" style="rounded=0;whiteSpace=wrap;html=1;" parent="1" vertex="1">
          <mxGeometry x="280" y="150" width="65" height="30" as="geometry" />
        </mxCell>
        <mxCell id="UZMCwY883td22Gfu0i2W-6" value="&lt;u&gt;VIN&lt;/u&gt;" style="rounded=0;whiteSpace=wrap;html=1;" parent="1" vertex="1">
          <mxGeometry x="345" y="150" width="40" height="30" as="geometry" />
        </mxCell>
        <mxCell id="UZMCwY883td22Gfu0i2W-7" value="Booking" style="text;html=1;align=left;verticalAlign=middle;resizable=0;points=[];autosize=1;strokeColor=none;fillColor=none;" parent="1" vertex="1">
          <mxGeometry x="50" y="120" width="70" height="30" as="geometry" />
        </mxCell>
        <mxCell id="UZMCwY883td22Gfu0i2W-8" style="edgeStyle=orthogonalEdgeStyle;rounded=0;orthogonalLoop=1;jettySize=auto;html=1;exitX=0.25;exitY=0;exitDx=0;exitDy=0;entryX=0.5;entryY=1;entryDx=0;entryDy=0;" parent="1" edge="1">
          <mxGeometry relative="1" as="geometry">
            <Array as="points">
              <mxPoint x="392.5" y="150" />
              <mxPoint x="392.5" y="130" />
              <mxPoint x="67.5" y="130" />
            </Array>
            <mxPoint x="383.75" y="150" as="sourcePoint" />
            <mxPoint x="67.50000000000006" y="90" as="targetPoint" />
          </mxGeometry>
        </mxCell>
        <mxCell id="UZMCwY883td22Gfu0i2W-9" value="&lt;u&gt;AccountID&lt;/u&gt;" style="rounded=0;whiteSpace=wrap;html=1;" parent="1" vertex="1">
          <mxGeometry x="385" y="150" width="65" height="30" as="geometry" />
        </mxCell>
        <mxCell id="UZMCwY883td22Gfu0i2W-10" value="&lt;u&gt;VIN&lt;/u&gt;" style="rounded=0;whiteSpace=wrap;html=1;" parent="1" vertex="1">
          <mxGeometry x="50" y="240" width="60" height="30" as="geometry" />
        </mxCell>
        <mxCell id="UZMCwY883td22Gfu0i2W-11" value="Make" style="rounded=0;whiteSpace=wrap;html=1;" parent="1" vertex="1">
          <mxGeometry x="110" y="240" width="45" height="30" as="geometry" />
        </mxCell>
        <mxCell id="UZMCwY883td22Gfu0i2W-12" value="Model" style="rounded=0;whiteSpace=wrap;html=1;" parent="1" vertex="1">
          <mxGeometry x="155" y="240" width="50" height="30" as="geometry" />
        </mxCell>
        <mxCell id="UZMCwY883td22Gfu0i2W-13" value="CostToRent" style="rounded=0;whiteSpace=wrap;html=1;" parent="1" vertex="1">
          <mxGeometry x="205" y="240" width="75" height="30" as="geometry" />
        </mxCell>
        <mxCell id="UZMCwY883td22Gfu0i2W-14" value="Description" style="rounded=0;whiteSpace=wrap;html=1;" parent="1" vertex="1">
          <mxGeometry x="280" y="240" width="70" height="30" as="geometry" />
        </mxCell>
        <mxCell id="UZMCwY883td22Gfu0i2W-15" value="SizeClass" style="rounded=0;whiteSpace=wrap;html=1;" parent="1" vertex="1">
          <mxGeometry x="350" y="240" width="65" height="30" as="geometry" />
        </mxCell>
        <mxCell id="UZMCwY883td22Gfu0i2W-16" value="RV" style="text;html=1;align=left;verticalAlign=middle;resizable=0;points=[];autosize=1;strokeColor=none;fillColor=none;" parent="1" vertex="1">
          <mxGeometry x="50" y="210" width="40" height="30" as="geometry" />
        </mxCell>
        <mxCell id="UZMCwY883td22Gfu0i2W-17" value="City" style="rounded=0;whiteSpace=wrap;html=1;" parent="1" vertex="1">
          <mxGeometry x="600" y="240" width="60" height="30" as="geometry" />
        </mxCell>
        <mxCell id="UZMCwY883td22Gfu0i2W-18" value="Mileage&lt;span style=&quot;color: rgba(0, 0, 0, 0); font-family: monospace; font-size: 0px; text-align: start; text-wrap-mode: nowrap;&quot;&gt;%3CmxGraphModel%3E%3Croot%3E%3CmxCell%20id%3D%220%22%2F%3E%3CmxCell%20id%3D%221%22%20parent%3D%220%22%2F%3E%3CmxCell%20id%3D%222%22%20value%3D%22Location%22%20style%3D%22rounded%3D0%3BwhiteSpace%3Dwrap%3Bhtml%3D1%3B%22%20vertex%3D%221%22%20parent%3D%221%22%3E%3CmxGeometry%20x%3D%22420%22%20y%3D%22450%22%20width%3D%2260%22%20height%3D%2230%22%20as%3D%22geometry%22%2F%3E%3C%2FmxCell%3E%3C%2Froot%3E%3C%2FmxGraphModel%3E&lt;/span&gt;" style="rounded=0;whiteSpace=wrap;html=1;" parent="1" vertex="1">
          <mxGeometry x="415" y="240" width="60" height="30" as="geometry" />
        </mxCell>
        <mxCell id="UZMCwY883td22Gfu0i2W-19" value="Availability" style="rounded=0;whiteSpace=wrap;html=1;" parent="1" vertex="1">
          <mxGeometry x="475" y="240" width="60" height="30" as="geometry" />
        </mxCell>
        <mxCell id="UZMCwY883td22Gfu0i2W-20" style="edgeStyle=orthogonalEdgeStyle;rounded=0;orthogonalLoop=1;jettySize=auto;html=1;entryX=0.5;entryY=1;entryDx=0;entryDy=0;" parent="1" target="UZMCwY883td22Gfu0i2W-35" edge="1">
          <mxGeometry relative="1" as="geometry">
            <Array as="points">
              <mxPoint x="561" y="240" />
              <mxPoint x="561" y="120" />
              <mxPoint x="85" y="120" />
            </Array>
            <mxPoint x="563.75" y="240" as="sourcePoint" />
            <mxPoint x="36.25000000000006" y="90" as="targetPoint" />
          </mxGeometry>
        </mxCell>
        <mxCell id="UZMCwY883td22Gfu0i2W-21" value="&lt;u&gt;OwnerID&lt;/u&gt;" style="rounded=0;whiteSpace=wrap;html=1;" parent="1" vertex="1">
          <mxGeometry x="535" y="240" width="65" height="30" as="geometry" />
        </mxCell>
        <mxCell id="UZMCwY883td22Gfu0i2W-22" value="&lt;u&gt;ImageID&lt;/u&gt;" style="rounded=0;whiteSpace=wrap;html=1;" parent="1" vertex="1">
          <mxGeometry x="50" y="410" width="60" height="30" as="geometry" />
        </mxCell>
        <mxCell id="UZMCwY883td22Gfu0i2W-23" value="IMAGE" style="text;html=1;align=left;verticalAlign=middle;resizable=0;points=[];autosize=1;strokeColor=none;fillColor=none;" parent="1" vertex="1">
          <mxGeometry x="50" y="380" width="60" height="30" as="geometry" />
        </mxCell>
        <mxCell id="UZMCwY883td22Gfu0i2W-24" value="ImageURL" style="rounded=0;whiteSpace=wrap;html=1;" parent="1" vertex="1">
          <mxGeometry x="110" y="410" width="70" height="30" as="geometry" />
        </mxCell>
        <mxCell id="UZMCwY883td22Gfu0i2W-25" value="SmallImageURL" style="rounded=0;whiteSpace=wrap;html=1;" parent="1" vertex="1">
          <mxGeometry x="180" y="410" width="100" height="30" as="geometry" />
        </mxCell>
        <mxCell id="UZMCwY883td22Gfu0i2W-26" value="UploadDate" style="rounded=0;whiteSpace=wrap;html=1;" parent="1" vertex="1">
          <mxGeometry x="320" y="410" width="70" height="30" as="geometry" />
        </mxCell>
        <mxCell id="UZMCwY883td22Gfu0i2W-27" style="edgeStyle=orthogonalEdgeStyle;rounded=0;orthogonalLoop=1;jettySize=auto;html=1;exitX=0.5;exitY=0;exitDx=0;exitDy=0;entryX=0.5;entryY=1;entryDx=0;entryDy=0;" parent="1" source="UZMCwY883td22Gfu0i2W-28" target="UZMCwY883td22Gfu0i2W-10" edge="1">
          <mxGeometry relative="1" as="geometry">
            <Array as="points">
              <mxPoint x="300" y="380" />
              <mxPoint x="630" y="380" />
              <mxPoint x="630" y="300" />
              <mxPoint x="80" y="300" />
            </Array>
          </mxGeometry>
        </mxCell>
        <mxCell id="UZMCwY883td22Gfu0i2W-28" value="&lt;u&gt;VIN&lt;/u&gt;" style="rounded=0;whiteSpace=wrap;html=1;" parent="1" vertex="1">
          <mxGeometry x="280" y="410" width="40" height="30" as="geometry" />
        </mxCell>
        <mxCell id="UZMCwY883td22Gfu0i2W-29" value="Token" style="rounded=0;whiteSpace=wrap;html=1;" parent="1" vertex="1">
          <mxGeometry x="50" y="490" width="60" height="30" as="geometry" />
        </mxCell>
        <mxCell id="UZMCwY883td22Gfu0i2W-30" value="RefreshToken" style="text;html=1;align=left;verticalAlign=middle;resizable=0;points=[];autosize=1;strokeColor=none;fillColor=none;" parent="1" vertex="1">
          <mxGeometry x="50" y="460" width="100" height="30" as="geometry" />
        </mxCell>
        <mxCell id="UZMCwY883td22Gfu0i2W-31" style="edgeStyle=orthogonalEdgeStyle;rounded=0;orthogonalLoop=1;jettySize=auto;html=1;exitX=0.5;exitY=0;exitDx=0;exitDy=0;entryX=0.75;entryY=1;entryDx=0;entryDy=0;" parent="1" edge="1" target="UZMCwY883td22Gfu0i2W-35">
          <mxGeometry relative="1" as="geometry">
            <Array as="points">
              <mxPoint x="133" y="460" />
              <mxPoint x="740" y="460" />
              <mxPoint x="740" y="110" />
              <mxPoint x="103" y="110" />
            </Array>
            <mxPoint x="132.5" y="490" as="sourcePoint" />
            <mxPoint x="55.00000000000003" y="90" as="targetPoint" />
          </mxGeometry>
        </mxCell>
        <mxCell id="UZMCwY883td22Gfu0i2W-32" value="&lt;u&gt;AccountID&lt;/u&gt;" style="rounded=0;whiteSpace=wrap;html=1;" parent="1" vertex="1">
          <mxGeometry x="110" y="490" width="70" height="30" as="geometry" />
        </mxCell>
        <mxCell id="UZMCwY883td22Gfu0i2W-33" value="Email" style="rounded=0;whiteSpace=wrap;html=1;" parent="1" vertex="1">
          <mxGeometry x="275" y="60" width="65" height="30" as="geometry" />
        </mxCell>
        <mxCell id="UZMCwY883td22Gfu0i2W-35" value="&lt;u&gt;AccountID&lt;/u&gt;" style="rounded=0;whiteSpace=wrap;html=1;" parent="1" vertex="1">
          <mxGeometry x="50" y="60" width="70" height="30" as="geometry" />
        </mxCell>
        <mxCell id="UZMCwY883td22Gfu0i2W-36" value="Name" style="rounded=0;whiteSpace=wrap;html=1;" parent="1" vertex="1">
          <mxGeometry x="120" y="60" width="45" height="30" as="geometry" />
        </mxCell>
        <mxCell id="UZMCwY883td22Gfu0i2W-37" value="InsuranceCompany" style="rounded=0;whiteSpace=wrap;html=1;" parent="1" vertex="1">
          <mxGeometry x="165" y="60" width="110" height="30" as="geometry" />
        </mxCell>
        <mxCell id="UZMCwY883td22Gfu0i2W-38" value="Address" style="rounded=0;whiteSpace=wrap;html=1;" parent="1" vertex="1">
          <mxGeometry x="357.5" y="60" width="65" height="30" as="geometry" />
        </mxCell>
        <mxCell id="UZMCwY883td22Gfu0i2W-39" value="DateOfBirth" style="rounded=0;whiteSpace=wrap;html=1;" parent="1" vertex="1">
          <mxGeometry x="487.5" y="60" width="75" height="30" as="geometry" />
        </mxCell>
        <mxCell id="UZMCwY883td22Gfu0i2W-40" value="Account" style="text;html=1;align=left;verticalAlign=middle;resizable=0;points=[];autosize=1;strokeColor=none;fillColor=none;" parent="1" vertex="1">
          <mxGeometry x="50" y="30" width="70" height="30" as="geometry" />
        </mxCell>
        <mxCell id="UZMCwY883td22Gfu0i2W-41" value="PhoneNumber" style="rounded=0;whiteSpace=wrap;html=1;" parent="1" vertex="1">
          <mxGeometry x="562.5" y="60" width="90" height="30" as="geometry" />
        </mxCell>
        <mxCell id="UZMCwY883td22Gfu0i2W-42" value="Password" style="rounded=0;whiteSpace=wrap;html=1;" parent="1" vertex="1">
          <mxGeometry x="422.5" y="60" width="65" height="30" as="geometry" />
        </mxCell>
        <mxCell id="UZMCwY883td22Gfu0i2W-43" value="" style="group" parent="1" connectable="0" vertex="1">
          <mxGeometry x="50" y="290" width="500" height="80" as="geometry" />
        </mxCell>
        <mxCell id="UZMCwY883td22Gfu0i2W-44" value="DamageReport" style="text;html=1;align=left;verticalAlign=middle;resizable=0;points=[];autosize=1;strokeColor=none;fillColor=none;" parent="UZMCwY883td22Gfu0i2W-43" vertex="1">
          <mxGeometry y="15" width="100" height="30" as="geometry" />
        </mxCell>
        <mxCell id="UZMCwY883td22Gfu0i2W-45" value="&lt;u&gt;ReportID&lt;/u&gt;" style="rounded=0;whiteSpace=wrap;html=1;" parent="UZMCwY883td22Gfu0i2W-43" vertex="1">
          <mxGeometry y="50" width="60" height="30" as="geometry" />
        </mxCell>
        <mxCell id="UZMCwY883td22Gfu0i2W-46" value="Damages" style="rounded=0;whiteSpace=wrap;html=1;" parent="UZMCwY883td22Gfu0i2W-43" vertex="1">
          <mxGeometry x="60" y="50" width="60" height="30" as="geometry" />
        </mxCell>
        <mxCell id="UZMCwY883td22Gfu0i2W-47" value="Deduction" style="rounded=0;whiteSpace=wrap;html=1;" parent="UZMCwY883td22Gfu0i2W-43" vertex="1">
          <mxGeometry x="120" y="50" width="70" height="30" as="geometry" />
        </mxCell>
        <mxCell id="UZMCwY883td22Gfu0i2W-48" value="Description" style="rounded=0;whiteSpace=wrap;html=1;" parent="UZMCwY883td22Gfu0i2W-43" vertex="1">
          <mxGeometry x="190" y="50" width="70" height="30" as="geometry" />
        </mxCell>
        <mxCell id="UZMCwY883td22Gfu0i2W-49" value="PoliceReportID" style="rounded=0;whiteSpace=wrap;html=1;" parent="UZMCwY883td22Gfu0i2W-43" vertex="1">
          <mxGeometry x="310" y="50" width="90" height="30" as="geometry" />
        </mxCell>
        <mxCell id="UZMCwY883td22Gfu0i2W-50" value="IncidentNumber" style="rounded=0;whiteSpace=wrap;html=1;" parent="UZMCwY883td22Gfu0i2W-43" vertex="1">
          <mxGeometry x="400" y="50" width="90" height="30" as="geometry" />
        </mxCell>
        <mxCell id="UZMCwY883td22Gfu0i2W-51" value="&lt;u&gt;BookingID&lt;/u&gt;" style="rounded=0;whiteSpace=wrap;html=1;" parent="UZMCwY883td22Gfu0i2W-43" vertex="1">
          <mxGeometry x="490" y="50" width="65" height="30" as="geometry" />
        </mxCell>
        <mxCell id="UZMCwY883td22Gfu0i2W-56" value="IsPaid" style="rounded=0;whiteSpace=wrap;html=1;" parent="UZMCwY883td22Gfu0i2W-43" vertex="1">
          <mxGeometry x="260" y="50" width="50" height="30" as="geometry" />
        </mxCell>
        <mxCell id="UZMCwY883td22Gfu0i2W-54" style="edgeStyle=orthogonalEdgeStyle;rounded=0;orthogonalLoop=1;jettySize=auto;html=1;exitX=0.5;exitY=0;exitDx=0;exitDy=0;entryX=0.25;entryY=1;entryDx=0;entryDy=0;" parent="1" source="UZMCwY883td22Gfu0i2W-51" target="UZMCwY883td22Gfu0i2W-1" edge="1">
          <mxGeometry relative="1" as="geometry">
            <Array as="points">
              <mxPoint x="573" y="310" />
              <mxPoint x="40" y="310" />
              <mxPoint x="40" y="210" />
              <mxPoint x="66" y="210" />
            </Array>
          </mxGeometry>
        </mxCell>
        <mxCell id="UZMCwY883td22Gfu0i2W-55" value="State" style="rounded=0;whiteSpace=wrap;html=1;" parent="1" vertex="1">
          <mxGeometry x="660" y="240" width="60" height="30" as="geometry" />
        </mxCell>
      </root>
    </mxGraphModel>
  </diagram>
</mxfile>
